Coordinates
version=1
nRows=24
nColumns=24
inDegrees=yes

Units are S.I. units (second, meters, Newtons, ...)
Angles are in degrees.

endheader
time	pelvis_tilt	pelvis_list	pelvis_rotation	pelvis_tx	pelvis_ty	pelvis_tz	hip_flexion_r	hip_adduction_r	hip_rotation_r	knee_angle_r	ankle_angle_r	subtalar_angle_r	mtp_angle_r	hip_flexion_l	hip_adduction_l	hip_rotation_l	knee_angle_l	ankle_angle_l	subtalar_angle_l	mtp_angle_l	lumbar_extension	lumbar_bending	lumbar_rotation
      3.02000000	      3.89992365	     -6.42314025	     -1.76397331	      0.44597699	      1.01545851	      0.02610770	      3.92381536	      8.04954448	     -2.24922280	    -10.02886469	      5.36585738	     -0.70606890	      6.54223717	     19.17218085	    -11.14336947	     -7.08318421	    -70.46740535	     -3.61221952	    -12.77320737	     30.94351634	    -16.15285391	      9.26094384	      3.38050383
      3.02500000	      3.95732780	     -6.33491029	     -1.92266646	      0.45092701	      1.01611157	      0.02667560	      3.38048629	      7.97528488	     -2.18108640	     -9.74558764	      5.53989652	     -0.51775335	      6.44712024	     19.66262004	    -11.03830041	     -7.20290536	    -70.12740930	     -3.03176010	    -12.30378838	     30.98124084	    -16.26079832	      9.10692413	      3.52488186
      3.03000000	      4.02548314	     -6.26657443	     -2.08437561	      0.45584735	      1.01673135	      0.02722268	      2.82383340	      7.91760480	     -2.08836371	     -9.45569956	      5.71523048	     -0.32706960	      6.32616448	     20.12816859	    -10.95201729	     -7.31565245	    -69.73513395	     -2.46542832	    -11.84691787	     30.97526245	    -16.38483722	      8.97397574	      3.69373184
      3.03500000	      4.11013171	     -6.18183929	     -2.25778873	      0.46081092	      1.01736577	      0.02779243	      2.24353924	      7.83962756	     -1.98366172	     -9.16009723	      5.89666065	     -0.13266532	      6.16945663	     20.53620574	    -10.85319372	     -7.45485563	    -69.25942557	     -1.91181992	    -11.41866739	     30.90938376	    -16.52048220	      8.81600713	      3.86256275
      3.04000000	      4.30973836	     -6.07332798	     -2.38508847	      0.46587891	      1.01816205	      0.02828825	      1.50647750	      7.72670557	     -1.94108954	     -8.80839765	      6.13287856	      0.08940791	      5.20384824	     20.77670061	    -10.70814143	     -7.59014812	    -68.68689300	     -1.28868066	    -11.00531901	     29.98695639	    -16.76573236	      8.63446872	      3.95175809
      3.04500000	      4.27705019	     -6.00757628	     -2.61682855	      0.47077342	      1.01853971	      0.02890839	      1.09459139	      7.66661262	     -1.79402652	     -8.58664613	      6.32757187	      0.29657955	      5.13208447	     21.27076156	    -10.64560864	     -7.75252788	    -68.10900955	     -0.75799894	    -10.61686238	     30.01894354	    -16.78001123	      8.49009785	      4.18248200
      3.05000000	      4.45158347	     -5.90235660	     -2.77765809	      0.47583826	      1.01923989	      0.02945248	      0.39102957	      7.55309291	     -1.69224675	     -8.24488896	      6.52759540	      0.47449373	      4.51926226	     21.48057314	    -10.51586593	     -7.91072036	    -67.40305525	     -0.22514572	    -10.25372647	     29.51393646	    -16.99748064	      8.29973209	      4.30352242
      3.05500000	      4.44035690	     -5.83117505	     -3.01546987	      0.48076086	      1.01959370	      0.03005789	     -0.04595404	      7.47774805	     -1.53162753	     -8.01914024	      6.71946921	      0.67207655	      4.44124075	     21.88948057	    -10.44441867	     -8.07528145	    -66.68378021	      0.25583779	     -9.90294146	     29.51577088	    -17.02950158	      8.14413019	      4.53633137
      3.06000000	      4.53630665	     -5.73621338	     -3.22897792	      0.48576039	      1.02009080	      0.03062999	     -0.62840729	      7.36875284	     -1.37493870	     -7.73798783	      6.89129536	      0.82825638	      4.32937864	     22.13503273	    -10.33805738	     -8.24803022	    -65.86618996	      0.70496061	     -9.56919832	     29.46251960	    -17.16735047	      7.95745022	      4.73331336
      3.06500000	      4.73688999	     -5.63187768	     -3.37574126	      0.49088034	      1.02073042	      0.03108801	     -1.36037384	      7.23733372	     -1.31250945	     -7.39376127	      7.08356681	      1.02123879	      3.62587549	     22.23162839	    -10.18607677	     -8.37974966	    -64.96025348	      1.17292798	     -9.28313706	     28.76411433	    -17.40056391	      7.77126703	      4.83152419
      3.07000000	      4.80512944	     -5.56128337	     -3.62049888	      0.49586693	      1.02109925	      0.03167078	     -1.88403093	      7.14197583	     -1.15421039	     -7.17529646	      7.42562280	      1.30261570	      2.56654413	     22.45284595	    -10.11363706	     -8.55611839	    -64.04260483	      1.69880649	     -8.86830313	     27.94273116	    -17.51160998	      7.60478174	      5.05996717
      3.07500000	      4.83173680	     -5.47558341	     -3.84286643	      0.50089366	      1.02138719	      0.03222041	     -2.37819376	      7.03423666	     -0.98960333	     -6.91540128	      7.55512071	      1.40772323	      2.53267203	     22.69811463	    -10.01590534	     -8.69898233	    -63.05287242	      2.04098683	     -8.52631055	     27.99444267	    -17.56162228	      7.43105721	      5.24042674
      3.08000000	      5.00092535	     -5.41970017	     -4.05792815	      0.50595172	      1.02184294	      0.03272976	     -3.05141664	      6.93956266	     -0.80267540	     -6.61460863	      7.71035746	      1.56659386	      2.42317260	     22.74591887	     -9.93518492	     -8.83681207	    -61.98766899	      2.38178210	     -8.22763411	     27.95972650	    -17.77299336	      7.27964865	      5.44929281
      3.08500000	      5.07417926	     -5.32499162	     -4.26342609	      0.51099999	      1.02212049	      0.03321556	     -3.58709254	      6.80810211	     -0.66672110	     -6.37054027	      7.89224873	      1.68834118	      2.34530583	     22.88046285	     -9.80708267	     -8.94389383	    -60.86579503	      2.67609730	     -7.87652328	     27.93559216	    -17.86876840	      7.09499574	      5.62459545
      3.09000000	      5.22658188	     -5.26919111	     -4.46846076	      0.51605710	      1.02246327	      0.03367659	     -4.22483887	      6.70395709	     -0.49604410	     -6.09875943	      8.06224446	      1.84455375	      2.21859856	     22.89814498	     -9.71215647	     -9.03319569	    -59.69112412	      2.97134059	     -7.51893628	     27.85983050	    -18.05798169	      6.94711615	      5.82734785
      3.09500000	      5.37891315	     -5.20899612	     -4.63773227	      0.52120579	      1.02277147	      0.03406661	     -4.86408876	      6.58777110	     -0.43350876	     -5.83728037	      8.39503364	      2.17545308	      0.77169425	     22.88952064	     -9.59330821	     -9.08460487	    -58.46682673	      3.37570110	     -7.08345737	     26.65242270	    -18.22931912	      6.80561942	      5.96171427
      3.10000000	      5.49855115	     -5.17035031	     -4.84460403	      0.52630559	      1.02298767	      0.03453887	     -5.46739894	      6.50046022	     -0.22896448	     -5.56828541	      8.54236842	      2.23532002	      0.69669251	     22.88744140	     -9.52073760	     -9.14882855	    -57.18846949	      3.62155475	     -6.69255074	     26.70193206	    -18.37443447	      6.67437136	      6.15219280
      3.10500000	      5.61922633	     -5.12685368	     -5.03188950	      0.53141734	      1.02315934	      0.03494639	     -6.06141555	      6.40018600	     -0.07377877	     -5.31837865	      8.72092972	      2.37282479	      0.60561725	     22.86090962	     -9.42392508	     -9.16946168	    -55.85316192	      3.83529998	     -6.29937456	     26.69885381	    -18.51679184	      6.54662341	      6.31877936
      3.11000000	      5.72942104	     -5.07056336	     -5.21103316	      0.53655778	      1.02328158	      0.03534364	     -6.63652521	      6.28575977	      0.06380654	     -5.08428617	      8.91764208	      2.48565470	      0.50915377	     22.81597604	     -9.31086027	     -9.17354984	    -54.45894039	      4.01554841	     -5.87719563	     26.66932543	    -18.64025181	      6.40522020	      6.48158103
      3.11500000	      5.87183369	     -5.03912008	     -5.38027231	      0.54176305	      1.02340117	      0.03572430	     -7.27120346	      6.18951102	      0.20812929	     -4.81087083	      9.09099632	      2.63337330	      0.36736139	     22.70376142	     -9.21978783	     -9.16555444	    -53.01653864	      4.20862391	     -5.47753031	     26.59240575	    -18.79455207	      6.29098829	      6.62264785
      3.12000000	      5.99437408	     -5.00112043	     -5.54129382	      0.54697690	      1.02346238	      0.03608724	     -7.86748926	      6.08709401	      0.33295359	     -4.57061961	      9.28855758	      2.76087609	      0.21847886	     22.58649782	     -9.11588898	     -9.12793887	    -51.51904520	      4.36465128	     -5.04370369	     26.49582880	    -18.92269742	      6.17175845	      6.76860327
      3.12500000	      6.11518869	     -4.96774782	     -5.69226006	      0.55218967	      1.02346668	      0.03641946	     -8.45708128	      5.98592246	      0.46016223	     -4.33897209	      9.48890770	      2.88968547	      0.06080835	     22.44751482	     -9.00955678	     -9.06215620	    -49.97590198	      4.50583704	     -4.60641220	     26.37939979	    -19.05007165	      6.06235197	      6.89615209
      3.13000000	      6.22506694	     -4.93472034	     -5.83431242	      0.55743916	      1.02341779	      0.03673732	     -9.03400211	      5.88481523	      0.58102185	     -4.11205641	      9.69557146	      3.01427537	     -0.10046910	     22.29141688	     -8.90143222	     -8.97751860	    -48.38347736	      4.62590663	     -4.16998815	     26.24795019	    -19.15970972	      5.95534700	      7.00715770
      3.13500000	      6.34493958	     -4.90828149	     -5.96391894	      0.56271566	      1.02334037	      0.03702986	     -9.62365129	      5.78705202	      0.69285083	     -3.88432741	      9.90043021	      3.14689495	     -0.27452371	     22.09610578	     -8.79446941	     -8.87341725	    -46.74322957	      4.73131100	     -3.73968957	     26.09447401	    -19.27851619	      5.85838137	      7.10341071
